<?xml version="1.0" encoding="utf-8"?>
<!-- Generator: Adobe Illustrator 25.0.0, SVG Export Plug-In . SVG Version: 6.00 Build 0)  -->
<svg version="1.1" xmlns="http://www.w3.org/2000/svg" xmlns:xlink="http://www.w3.org/1999/xlink" x="0px" y="0px"
	 viewBox="0 0 1080 270" style="enable-background:new 0 0 1080 270;" xml:space="preserve">
<style type="text/css">
	.st0{display:none;}
	.st1{display:inline;}
</style>
<g id="Layer_1" class="st0">
	<g class="st1">
		<g>
			<path d="M115.9,49.8c8.1,0,16.4,0,24.8,0.1s16.7,0.2,24.9,0.5c8.2,0.2,15.8,0.8,22.9,1.6L187,74h-60.8c-4.8,0-8.4,1.1-10.8,3.4
				c-2.4,2.2-3.6,5.7-3.6,10.5v127.6H81.9V81.9c0-10.1,3.1-17.9,9.3-23.6C97.4,52.6,105.7,49.8,115.9,49.8z M85.9,120.7h91.9v22
				H85.9V120.7z"/>
			<path d="M233.4,46.9c5.7,0,8.6,2.9,8.6,8.6v13.4c0,5.7-2.9,8.6-8.6,8.6h-12.9c-5.7,0-8.6-2.9-8.6-8.6V55.5c0-5.7,2.9-8.6,8.6-8.6
				H233.4z M241.3,97.9v117.6h-28.7V97.9H241.3z"/>
			<path d="M295,97.9l33.5,57.2l-35.9,60.3h-30.4l37.8-60.3l-35-57.2C265,97.9,295,97.9,295,97.9z M340.7,144.8v19.4h-32.1v-19.4
				H340.7z M383.8,97.9l-35,57.2l37.8,60.3h-29.9l-36.4-60.3l33.5-57.2C353.8,97.9,383.8,97.9,383.8,97.9z"/>
			<path d="M497,143.2l-0.2,18h-53.9c-4.8,0.2-8.2,1.4-10.3,3.8c-2.1,2.4-3.1,5.7-3.1,9.8v6.5c0,4.8,1.3,8.4,3.8,10.9
				c2.6,2.5,6.5,3.7,12,3.7c4.3,0,9.1-0.9,14.4-2.6c5.3-1.8,10.5-4.3,15.7-7.7s9.9-7.3,14-12v15.1c-1.6,2.4-3.9,5.2-6.9,8.5
				s-6.7,6.5-11.1,9.7s-9.4,5.8-15.1,7.9c-5.7,2.1-11.9,3.1-18.8,3.1c-7,0-13.3-1.2-18.9-3.7s-10-6.1-13.2-11s-4.8-10.9-4.8-18.1
				v-12.5c0-9.3,3.1-16.5,9.2-21.7s14.6-7.8,25.3-7.8H497V143.2z M465.9,95c9.4,0,17.4,1.2,23.8,3.7c6.5,2.5,11.4,6.7,14.7,12.6
				c3.4,5.9,5,14,5,24.4v79.7h-23l-4.1-25.4l-2.2-3.4v-51.2c0-6.2-1.4-10.7-4.3-13.5s-8.4-4.2-16.5-4.2c-6.1,0-13.7,0.2-22.9,0.7
				c-9.2,0.5-18.4,1.1-27.7,1.9l-2.6-19.9c5.6-1.1,11.9-2.1,18.9-2.9s14.1-1.4,21.3-1.9S460.2,95,465.9,95z"/>
			<path d="M656.5,50.3v13.9H530.8V50.3H656.5z M601.4,50.3v165.2h-15.8V50.3H601.4z"/>
			<path d="M728.8,96.5c16.6,0,28.8,3,36.5,9.1s11.7,15.1,11.9,27.1c0.2,10.4-1.8,18.4-6,23.9c-4.2,5.6-11.1,8.4-20.8,8.4h-67.3v-12
				H747c5.9,0,9.9-1.9,12-5.7s3-8.6,2.9-14.4c-0.2-8.3-2.8-14.2-7.9-17.8c-5.1-3.6-13.3-5.4-24.4-5.4c-9.3,0-16.6,1.4-22,4.3
				s-9.3,7.7-11.5,14.5c-2.2,6.8-3.4,16-3.4,27.7c0,12.9,1.4,22.9,4.1,30c2.7,7.1,7,12.1,12.9,14.8c5.9,2.8,13.6,4.2,23.2,4.2
				c6.7,0,13.7-0.3,21-0.8c7.3-0.6,13.6-1.2,19-2l1.7,10.3c-3.4,1.3-7.6,2.3-12.8,3.1s-10.5,1.4-16,1.9s-10.4,0.7-14.7,0.7
				c-13.1,0-23.6-2-31.5-6.1s-13.7-10.6-17.4-19.6s-5.5-20.9-5.5-35.6c0-15.2,1.8-27.1,5.4-35.9c3.6-8.8,9.2-15.1,16.9-18.9
				C706.6,98.4,716.5,96.5,728.8,96.5z"/>
			<path d="M858.8,96.5c3.2,0,6.9,0.2,11,0.5s8.4,0.8,12.7,1.6s8.3,1.7,12,3l-2.2,10.1c-4.9-0.6-10.4-1.1-16.3-1.4
				c-5.9-0.3-10.9-0.5-14.8-0.5c-10.1,0-18.1,1.4-24.1,4.2c-6,2.8-10.3,7.7-12.9,14.6c-2.6,6.9-4,16.6-4,28.9c0,12.3,1.3,21.9,4,29
				c2.6,7,6.9,11.9,12.9,14.7s14,4.2,24.1,4.2c2.4,0,5.5-0.1,9.3-0.2c3.8-0.2,7.9-0.4,12.2-0.7s8.4-0.8,12.2-1.4l1.9,10.3
				c-5.7,1.8-11.9,3.1-18.6,4c-6.6,0.9-13.2,1.3-19.8,1.3c-13.1,0-23.6-2-31.6-6s-13.8-10.4-17.4-19.3c-3.6-8.9-5.4-20.8-5.4-35.8
				c0-14.8,1.8-26.7,5.4-35.7c3.6-8.9,9.4-15.4,17.4-19.3C835,98.4,845.6,96.5,858.8,96.5z"/>
			<path d="M941.4,47.9l0.2,48.1c0,4.8-0.2,9.3-0.5,13.6c-0.3,4.3-0.8,8.2-1.4,11.7l1.7,3.6v90.5h-15.1V47.9H941.4z M993.6,96.5
				c20.9,0,31.4,10.6,31.4,31.8v87.2h-15.3v-83.1c0-8.3-1.6-14.2-4.7-17.6c-3.1-3.4-8.2-5.1-15.2-5.1c-7.8,0-15.5,1.8-23.1,5.4
				s-16.6,8.8-26.9,15.7l-0.5-11.3c9.3-7,18.4-12.6,27.5-16.8C975.9,98.6,984.8,96.5,993.6,96.5z"/>
		</g>
	</g>
</g>
<g id="Layer_2">
	<g>
		<g>
			<path d="M321.6,67.8v12.4H209.3V67.8H321.6z M272.4,67.8v147.5h-14.1V67.8H272.4z"/>
			<path d="M386.1,109.1c14.8,0,25.7,2.7,32.6,8.1c6.9,5.4,10.4,13.5,10.6,24.2c0.1,9.3-1.6,16.4-5.3,21.4c-3.7,5-9.9,7.5-18.6,7.5
				h-60.1v-10.7h57.1c5.3,0,8.8-1.7,10.7-5.1c1.9-3.4,2.7-7.7,2.6-12.8c-0.1-7.4-2.5-12.7-7.1-15.9c-4.6-3.2-11.8-4.8-21.8-4.8
				c-8.3,0-14.8,1.3-19.7,3.8c-4.8,2.6-8.3,6.9-10.3,12.9c-2,6.1-3,14.3-3,24.7c0,11.5,1.2,20.5,3.6,26.8
				c2.4,6.3,6.3,10.8,11.5,13.3c5.3,2.5,12.2,3.7,20.7,3.7c6,0,12.2-0.2,18.7-0.7c6.5-0.5,12.2-1.1,17-1.8l1.5,9.2
				c-3,1.1-6.8,2.1-11.4,2.8c-4.6,0.7-9.4,1.3-14.3,1.7c-4.9,0.4-9.3,0.6-13.1,0.6c-11.7,0-21.1-1.8-28.1-5.5
				c-7.1-3.6-12.2-9.5-15.5-17.5c-3.3-8.1-4.9-18.6-4.9-31.8c0-13.5,1.6-24.2,4.8-32.1c3.2-7.8,8.2-13.5,15.1-16.9
				C366.3,110.8,375.2,109.1,386.1,109.1z"/>
			<path d="M502.2,109.1c2.8,0,6.1,0.1,9.8,0.4c3.7,0.3,7.5,0.7,11.3,1.4c3.8,0.6,7.4,1.5,10.7,2.7l-1.9,9c-4.4-0.6-9.3-1-14.5-1.3
				c-5.3-0.3-9.7-0.4-13.3-0.4c-9,0-16.1,1.2-21.5,3.7c-5.3,2.5-9.2,6.8-11.5,13c-2.4,6.2-3.5,14.8-3.5,25.8c0,11,1.2,19.6,3.5,25.9
				c2.4,6.3,6.2,10.7,11.5,13.2c5.3,2.5,12.5,3.7,21.5,3.7c2.1,0,4.9-0.1,8.3-0.2c3.4-0.1,7.1-0.4,10.9-0.6
				c3.8-0.3,7.5-0.7,10.9-1.3l1.7,9.2c-5.1,1.6-10.7,2.7-16.6,3.5c-5.9,0.8-11.8,1.2-17.6,1.2c-11.7,0-21.1-1.8-28.2-5.3
				c-7.1-3.6-12.3-9.3-15.5-17.2c-3.2-7.9-4.8-18.6-4.8-32c0-13.3,1.6-23.9,4.8-31.9c3.2-8,8.4-13.7,15.5-17.2
				C480.9,110.8,490.4,109.1,502.2,109.1z"/>
			<path d="M576,65.7l0.2,43c0,4.3-0.1,8.3-0.4,12.2c-0.3,3.8-0.7,7.3-1.3,10.5l1.5,3.2v80.8h-13.5V65.7H576z M622.6,109.1
				c18.7,0,28,9.5,28,28.4v77.8H637v-74.2c0-7.4-1.4-12.6-4.2-15.7c-2.8-3.1-7.3-4.6-13.6-4.6c-7,0-13.9,1.6-20.6,4.8
				c-6.8,3.2-14.8,7.9-24.1,14l-0.4-10.1c8.3-6.3,16.5-11.3,24.6-15C606.8,110.9,614.8,109.1,622.6,109.1z"/>
		</g>
	</g>
	<g>
		<path d="M115.9,225c-3.7,0-7.3,0-11,0c-7,0-7.4-0.6-5.6-7.1c4.3-15.2,12.4-28.3,23.9-39c3.7-3.5,3.7-5.8,0.5-9.4
			c-4.3-4.7-8.3-9.6-12-14.6c-2.5-3.4-4.6-3.6-7.6-0.8c-18.6,17.5-32.2,37.9-38.8,62.8c-2.2,8.1-2.1,8.1-10.6,8.1c-7,0-14,0-21,0
			c-5.9,0-6.5-0.7-5.1-6.4c4.1-17.4,11-33.8,20.4-49c9.5-15.4,21.2-29,34.7-40.9c3.2-2.8,3-4.8,0.5-7.7c-4.7-5.4-9-11.2-13.7-16.5
			c-2.7-3.1-2-5.1,0.9-7.3c32.2-25,67.9-41.7,108.8-46.6c5.8-0.7,11.6-1,17.4-1.5c3.5-0.3,4.9,1.1,4.2,4.7
			c-1.8,8.9-3.6,17.9-5.2,26.9c-0.5,3-1.9,4.2-4.9,4.4c-13.8,0.8-27.5,2.6-40.8,6.7c-21,6.6-40.2,16.7-57.7,30.1
			c-3.6,2.8-3.6,4.7-0.8,7.9c4.4,5,8.6,10.2,12.5,15.5c2.4,3.3,4.3,3.5,7.6,0.9c18.3-14.1,38.8-23.2,61.8-26.3
			c3.6-0.5,7.3-0.5,11-0.6c2.6-0.1,3.7,1.1,3.2,3.7c-1.8,9.5-3.6,18.9-5.3,28.4c-0.6,3.4-3.2,3.8-6,4c-16.4,0.8-30.6,7.1-43.9,16.3
			c-3.4,2.3-3.5,4.2-0.9,7.1c4.9,5.7,9.4,11.6,14.3,17.3c2.2,2.5,2.2,4.3-0.3,6.7c-5.2,4.9-8.9,10.8-10.9,17.6c-1,3.4-3,4.9-6.5,4.8
			C124.6,224.9,120.3,225,115.9,225z"/>
	</g>
</g>
</svg>
